<svg xmlns="http://www.w3.org/2000/svg" viewBox="0 0 64 64">
  <rect width="64" height="64" rx="14" fill="#bfe3ff"/>
  <g transform="translate(32 33) scale(0.78) translate(-110 -86)">
    <path d="M92 68 C74 68 70 92 76 104 C82 112 94 104 96 88 C98 78 98 70 92 68 Z" fill="#d6a47c"/>
    <path d="M128 68 C146 68 150 92 144 104 C138 112 126 104 124 88 C122 78 122 70 128 68 Z" fill="#d6a47c"/>
    <path d="M110 62 C126 62 132 76 132 88 C132 102 124 108 110 108 C96 108 88 102 88 88 C88 76 94 62 110 62 Z" fill="#fff6e8"/>
    <ellipse cx="101" cy="85" rx="3" ry="3.5" fill="#6b5348"/>
    <ellipse cx="119" cy="85" rx="3" ry="3.5" fill="#6b5348"/>
    <ellipse cx="110" cy="93" rx="4" ry="3" fill="#6b5348"/>
    <ellipse cx="95" cy="95" rx="4.5" ry="2.8" fill="#ffb3c0" opacity=".8"/>
    <ellipse cx="125" cy="95" rx="4.5" ry="2.8" fill="#ffb3c0" opacity=".8"/>
  </g>
</svg>
